<?xml version="1.0" encoding="UTF-8" standalone="no"?>
<!-- Created with Inkscape (http://www.inkscape.org/) -->

<svg
   xmlns:dc="http://purl.org/dc/elements/1.1/"
   xmlns:cc="http://creativecommons.org/ns#"
   xmlns:rdf="http://www.w3.org/1999/02/22-rdf-syntax-ns#"
   xmlns:svg="http://www.w3.org/2000/svg"
   xmlns="http://www.w3.org/2000/svg"
   xmlns:sodipodi="http://sodipodi.sourceforge.net/DTD/sodipodi-0.dtd"
   xmlns:inkscape="http://www.inkscape.org/namespaces/inkscape"
   width="56.916668mm"
   height="56.916668mm"
   viewBox="0 0 56.916668 56.916668"
   version="1.1"
   id="svg4549"
   inkscape:version="0.92.3 (2405546, 2018-03-11)"
   sodipodi:docname="RightThumbContainer.svg">
  <defs
     id="defs4543" />
  <sodipodi:namedview
     id="base"
     pagecolor="#ffffff"
     bordercolor="#666666"
     borderopacity="1.0"
     inkscape:pageopacity="0.0"
     inkscape:pageshadow="2"
     inkscape:zoom="0.98994949"
     inkscape:cx="137.38487"
     inkscape:cy="21.187736"
     inkscape:document-units="mm"
     inkscape:current-layer="layer1"
     showgrid="false"
     fit-margin-top="2"
     fit-margin-left="2"
     fit-margin-right="2"
     fit-margin-bottom="2"
     inkscape:window-width="1920"
     inkscape:window-height="1001"
     inkscape:window-x="-9"
     inkscape:window-y="-9"
     inkscape:window-maximized="1" />
  <metadata
     id="metadata4546">
    <rdf:RDF>
      <cc:Work
         rdf:about="">
        <dc:format>image/svg+xml</dc:format>
        <dc:type
           rdf:resource="http://purl.org/dc/dcmitype/StillImage" />
        <dc:title></dc:title>
      </cc:Work>
    </rdf:RDF>
  </metadata>
  <g
     inkscape:label="Layer 1"
     inkscape:groupmode="layer"
     id="layer1"
     transform="translate(-39.898661,-129.88111)">
    <circle
       class="st0"
       cx="68.356995"
       cy="158.33945"
       r="26.458334"
       id="circle6"
       style="fill:#333333;fill-opacity:1;stroke-width:0.18310264" />
    <circle
       class="st1"
       cx="68.356995"
       cy="158.33945"
       r="19.683535"
       id="circle17"
       style="fill:#666666;fill-opacity:1;stroke-width:0.18310264" />
    <path
       inkscape:connector-curvature="0"
       class="st0"
       d="m 61.472333,145.92508 c 1.556373,-0.31127 3.790225,-0.49437 5.914216,-0.49437 3.295847,0 5.419838,0.60423 6.92128,1.94088 1.208477,1.062 1.885957,2.69161 1.885957,4.54095 0,3.14937 -1.977509,5.23674 -4.504325,6.09732 v 0.10986 c 1.849337,0.64086 2.947953,2.34372 3.51557,4.8156 0.787342,3.33247 1.35496,5.63956 1.849337,6.55508 h -3.185986 c -0.384515,-0.67748 -0.915513,-2.72824 -1.592993,-5.71281 -0.7141,-3.29584 -1.977508,-4.54094 -4.778979,-4.65081 h -2.911332 v 10.34531 h -3.076125 v -23.54701 z m 3.076124,10.8763 h 3.149366 c 3.295848,0 5.383218,-1.81271 5.383218,-4.54095 0,-3.07612 -2.233852,-4.43108 -5.493079,-4.4677 -1.483132,0 -2.545128,0.14648 -3.039505,0.27466 z"
       id="path19"
       style="fill:#333333;fill-opacity:1;stroke-width:0.18310264" />
  </g>
</svg>
